<mxfile host="Electron" modified="2023-06-12T05:46:16.733Z" agent="Mozilla/5.0 (Macintosh; Intel Mac OS X 10_15_3) AppleWebKit/537.36 (KHTML, like Gecko) draw.io/21.3.7 Chrome/112.0.5615.204 Electron/24.5.0 Safari/537.36" etag="6-ftCKtg-2IxTjXkTH9H" version="21.3.7" type="device">
  <diagram name="Page-1" id="SpBrtHW5zPQedgUMCY5X">
    <mxGraphModel dx="954" dy="682" grid="1" gridSize="10" guides="1" tooltips="1" connect="1" arrows="1" fold="1" page="1" pageScale="1" pageWidth="827" pageHeight="1169" math="0" shadow="0">
      <root>
        <mxCell id="0" />
        <mxCell id="1" parent="0" />
        <mxCell id="IGwjcqPhxSeNRYjFNjXw-30" style="edgeStyle=orthogonalEdgeStyle;rounded=0;orthogonalLoop=1;jettySize=auto;html=1;sketch=1;curveFitting=1;jiggle=2;" parent="1" source="IGwjcqPhxSeNRYjFNjXw-5" edge="1">
          <mxGeometry relative="1" as="geometry">
            <mxPoint x="720" y="880" as="targetPoint" />
          </mxGeometry>
        </mxCell>
        <mxCell id="IGwjcqPhxSeNRYjFNjXw-5" value="&lt;font data-font-src=&quot;https://fonts.googleapis.com/css?family=Architects+Daughter&quot;&gt;&lt;br&gt;&lt;br&gt;&lt;br&gt;&lt;br&gt;&lt;br&gt;&lt;br&gt;&lt;br&gt;&lt;br&gt;User at&lt;br&gt;&amp;nbsp;terminal&lt;/font&gt;" style="shape=actor;whiteSpace=wrap;html=1;sketch=1;curveFitting=1;jiggle=2;fontFamily=Architects Daughter;fontSource=https%3A%2F%2Ffonts.googleapis.com%2Fcss%3Ffamily%3DArchitects%2BDaughter;" parent="1" vertex="1">
          <mxGeometry x="410" y="970" width="40" height="60" as="geometry" />
        </mxCell>
        <mxCell id="IGwjcqPhxSeNRYjFNjXw-16" style="edgeStyle=orthogonalEdgeStyle;rounded=0;orthogonalLoop=1;jettySize=auto;html=1;sketch=1;curveFitting=1;jiggle=2;" parent="1" source="IGwjcqPhxSeNRYjFNjXw-6" target="IGwjcqPhxSeNRYjFNjXw-8" edge="1">
          <mxGeometry relative="1" as="geometry">
            <Array as="points">
              <mxPoint x="440" y="691" />
            </Array>
          </mxGeometry>
        </mxCell>
        <mxCell id="IGwjcqPhxSeNRYjFNjXw-17" value="Agent uses IAM&lt;br&gt;role to access&lt;br&gt;SSM" style="edgeLabel;html=1;align=center;verticalAlign=middle;resizable=0;points=[];fontFamily=Architects Daughter;fontSource=https%3A%2F%2Ffonts.googleapis.com%2Fcss%3Ffamily%3DArchitects%2BDaughter;" parent="IGwjcqPhxSeNRYjFNjXw-16" vertex="1" connectable="0">
          <mxGeometry x="0.2616" y="-1" relative="1" as="geometry">
            <mxPoint as="offset" />
          </mxGeometry>
        </mxCell>
        <mxCell id="IGwjcqPhxSeNRYjFNjXw-6" value="" style="sketch=0;points=[[0,0,0],[0.25,0,0],[0.5,0,0],[0.75,0,0],[1,0,0],[0,1,0],[0.25,1,0],[0.5,1,0],[0.75,1,0],[1,1,0],[0,0.25,0],[0,0.5,0],[0,0.75,0],[1,0.25,0],[1,0.5,0],[1,0.75,0]];outlineConnect=0;fontColor=#232F3E;gradientColor=#F78E04;gradientDirection=north;fillColor=#D05C17;strokeColor=#ffffff;dashed=0;verticalLabelPosition=bottom;verticalAlign=top;align=center;html=1;fontSize=12;fontStyle=0;aspect=fixed;shape=mxgraph.aws4.resourceIcon;resIcon=mxgraph.aws4.ec2;" parent="1" vertex="1">
          <mxGeometry x="400" y="800" width="78" height="78" as="geometry" />
        </mxCell>
        <mxCell id="IGwjcqPhxSeNRYjFNjXw-14" style="edgeStyle=orthogonalEdgeStyle;rounded=0;orthogonalLoop=1;jettySize=auto;html=1;entryX=1;entryY=0.5;entryDx=0;entryDy=0;entryPerimeter=0;startArrow=classic;startFill=1;sketch=1;curveFitting=1;jiggle=2;" parent="1" source="IGwjcqPhxSeNRYjFNjXw-7" target="IGwjcqPhxSeNRYjFNjXw-6" edge="1">
          <mxGeometry relative="1" as="geometry" />
        </mxCell>
        <mxCell id="IGwjcqPhxSeNRYjFNjXw-18" value="HTTPS" style="edgeLabel;html=1;align=center;verticalAlign=middle;resizable=0;points=[];fontFamily=Architects Daughter;fontSource=https%3A%2F%2Ffonts.googleapis.com%2Fcss%3Ffamily%3DArchitects%2BDaughter;" parent="IGwjcqPhxSeNRYjFNjXw-14" vertex="1" connectable="0">
          <mxGeometry x="-0.0099" y="1" relative="1" as="geometry">
            <mxPoint as="offset" />
          </mxGeometry>
        </mxCell>
        <mxCell id="IGwjcqPhxSeNRYjFNjXw-7" value="" style="sketch=0;points=[[0,0,0],[0.25,0,0],[0.5,0,0],[0.75,0,0],[1,0,0],[0,1,0],[0.25,1,0],[0.5,1,0],[0.75,1,0],[1,1,0],[0,0.25,0],[0,0.5,0],[0,0.75,0],[1,0.25,0],[1,0.5,0],[1,0.75,0]];points=[[0,0,0],[0.25,0,0],[0.5,0,0],[0.75,0,0],[1,0,0],[0,1,0],[0.25,1,0],[0.5,1,0],[0.75,1,0],[1,1,0],[0,0.25,0],[0,0.5,0],[0,0.75,0],[1,0.25,0],[1,0.5,0],[1,0.75,0]];outlineConnect=0;fontColor=#232F3E;gradientColor=#F34482;gradientDirection=north;fillColor=#BC1356;strokeColor=#ffffff;dashed=0;verticalLabelPosition=bottom;verticalAlign=top;align=center;html=1;fontSize=12;fontStyle=0;aspect=fixed;shape=mxgraph.aws4.resourceIcon;resIcon=mxgraph.aws4.systems_manager;" parent="1" vertex="1">
          <mxGeometry x="680" y="800" width="78" height="78" as="geometry" />
        </mxCell>
        <mxCell id="IGwjcqPhxSeNRYjFNjXw-8" value="" style="outlineConnect=0;dashed=0;verticalLabelPosition=bottom;verticalAlign=top;align=center;html=1;shape=mxgraph.aws3.iam;fillColor=#759C3E;gradientColor=none;" parent="1" vertex="1">
          <mxGeometry x="610" y="650" width="42" height="81" as="geometry" />
        </mxCell>
        <mxCell id="IGwjcqPhxSeNRYjFNjXw-31" style="edgeStyle=orthogonalEdgeStyle;rounded=0;orthogonalLoop=1;jettySize=auto;html=1;sketch=1;curveFitting=1;jiggle=2;" parent="1" source="IGwjcqPhxSeNRYjFNjXw-29" target="IGwjcqPhxSeNRYjFNjXw-8" edge="1">
          <mxGeometry relative="1" as="geometry">
            <Array as="points">
              <mxPoint x="840" y="979" />
              <mxPoint x="840" y="691" />
            </Array>
          </mxGeometry>
        </mxCell>
        <mxCell id="IGwjcqPhxSeNRYjFNjXw-29" value="Permission&lt;br&gt;Policy&lt;br&gt;Check" style="sketch=0;outlineConnect=0;fontColor=#232F3E;gradientColor=none;strokeColor=#232F3E;fillColor=#ffffff;dashed=0;verticalLabelPosition=bottom;verticalAlign=top;align=center;html=1;fontSize=12;fontStyle=0;aspect=fixed;shape=mxgraph.aws4.resourceIcon;resIcon=mxgraph.aws4.rule_2;fontFamily=Architects Daughter;fontSource=https%3A%2F%2Ffonts.googleapis.com%2Fcss%3Ffamily%3DArchitects%2BDaughter;" parent="1" vertex="1">
          <mxGeometry x="710" y="949" width="60" height="60" as="geometry" />
        </mxCell>
        <mxCell id="IGwjcqPhxSeNRYjFNjXw-32" value="Session manager permissions&lt;br&gt;&amp;amp; EC2 permissions" style="text;html=1;align=center;verticalAlign=middle;resizable=0;points=[];autosize=1;strokeColor=none;fillColor=none;fontFamily=Architects Daughter;fontSource=https%3A%2F%2Ffonts.googleapis.com%2Fcss%3Ffamily%3DArchitects%2BDaughter;" parent="1" vertex="1">
          <mxGeometry x="850" y="793" width="180" height="40" as="geometry" />
        </mxCell>
      </root>
    </mxGraphModel>
  </diagram>
</mxfile>
